{"title":"Basement Jack 2009 DVDRip Xvid BigPerm LKRG","uid":6465440,"size":886305465,"categoryP":"video","categoryS":"movies","magnet":"?xt=urn:btih:b6168e33e2e0cb6326a3345426556a968c4f943a&amp;dn=Basement+Jack+2009+DVDRip+Xvid+BigPerm+LKRG&amp;tr=udp%3A%2F%2Ftracker.openbittorrent.com%3A80&amp;tr=udp%3A%2F%2Fopen.demonii.com%3A1337&amp;tr=udp%3A%2F%2Ftracker.coppersurfer.tk%3A6969&amp;tr=udp%3A%2F%2Fexodus.desync.com%3A6969","seeders":0,"leechers":1,"uploader":".BONE.","files":62,"time":1307950876,"description":"PLOT\n\nA young serial killer preys on families during lightning storms.\n &lt;a href=&quot;\nhttp://www.imdb.com/title/tt1104834/&quot; rel=&quot;nofollow&quot; target=&quot;_NEW&quot;&gt;\nhttp://www.imdb.com/title/tt1104834/&lt;/a&gt;\n\n\nEncoded By .......: BigPerm1828\nRuntime ..........: 1h 32mn\nFile Size ........: 850 MB\nResolution .......: 704x396\nIMDb URL .........: http://www.imdb.com/title/tt1104834/\nLanguage .........: English\nVideo\nID : 0\nFormat : MPEG-4 Visual\nFormat profile : Advanced Simple@L5\nFormat settings, BVOP : Yes\nFormat settings, QPel : No\nFormat settings, GMC : No warppoints\nFormat settings, Matrix : Default (H.263)\nCodec ID : XVID\nCodec ID/Hint : XviD\nDuration : 1h 32mn\nBit rate : 1 081 Kbps\nWidth : 704 pixels\nHeight : 396 pixels\nDisplay aspect ratio : 16:9\nFrame rate : 23.976 fps\nColor space : YUV\nChroma subsampling : 4:2:0\nBit depth : 8 bits\nScan type : Progressive\nCompression mode : Lossy\nBits/(Pixel*Frame) : 0.162\nStream size : 719 MiB (85%)\nWriting library : XviD 1.2.1 (UTC 2008-12-04)\n\nAudio\nID : 1\nFormat : AC-3\nFormat/Info : Audio Coding 3\nMode extension : CM (complete main)\nCodec ID : 2000\nDuration : 1h 32mn\nBit rate mode : Constant\nBit rate : 192 Kbps\nChannel(s) : 2 channels\nChannel positions : Front: L R\nSampling rate : 48.0 KHz\nBit depth : 16 bits\nCompression mode : Lossy\nVideo delay : 42ms\nStream size : 128 MiB (15%)\nAlignment : Split accross interleaves\nInterleave, duration : 500 ms (11.99 video frames)\nInterleave, preload duration : 500 ms\n &lt;a href=&quot;\nhttp://leetleech.org/images/73658956809521829857.png&quot; rel=&quot;nofollow&quot; target=&quot;_NEW&quot;&gt;\nhttp://leetleech.org/images/73658956809521829857.png&lt;/a&gt;\n &lt;a href=&quot;\nhttp://leetleech.org/images/70468900298984832421.png&quot; rel=&quot;nofollow&quot; target=&quot;_NEW&quot;&gt;\nhttp://leetleech.org/images/70468900298984832421.png&lt;/a&gt;\n &lt;a href=&quot;\nhttp://leetleech.org/images/25164742247594108631.png&quot; rel=&quot;nofollow&quot; target=&quot;_NEW&quot;&gt;\nhttp://leetleech.org/images/25164742247594108631.png&lt;/a&gt;\n &lt;a href=&quot;\nhttp://leetleech.org/images/45652947952993450484.png&quot; rel=&quot;nofollow&quot; target=&quot;_NEW&quot;&gt;\nhttp://leetleech.org/images/45652947952993450484.png&lt;/a&gt;\n &lt;a href=&quot;\nhttp://leetleech.org/images/82511934615416636844.png&quot; rel=&quot;nofollow&quot; target=&quot;_NEW&quot;&gt;\nhttp://leetleech.org/images/82511934615416636844.png&lt;/a&gt;","torrent":{"xt":"urn:btih:b6168e33e2e0cb6326a3345426556a968c4f943a","amp;dn":"Basement+Jack+2009+DVDRip+Xvid+BigPerm+LKRG","amp;tr":["udp%3A%2F%2Ftracker.openbittorrent.com%3A80","udp%3A%2F%2Fopen.demonii.com%3A1337","udp%3A%2F%2Ftracker.coppersurfer.tk%3A6969","udp%3A%2F%2Fexodus.desync.com%3A6969"],"infoHash":"b6168e33e2e0cb6326a3345426556a968c4f943a","infoHashBuffer":{"type":"Buffer","data":[182,22,142,51,226,224,203,99,38,163,52,84,38,85,106,150,140,79,148,58]},"announce":[],"urlList":[]}}